<svg width="116" height="24" viewBox="0 0 116 24" fill="none" xmlns="http://www.w3.org/2000/svg">
<path d="M8.43359 3.64453C7.73828 3.64453 7.12109 3.78125 6.58203 4.05469C6.05078 4.32031 5.60156 4.70703 5.23438 5.21484C4.875 5.72266 4.60156 6.33594 4.41406 7.05469C4.22656 7.77344 4.13281 8.58203 4.13281 9.48047C4.13281 10.6914 4.28125 11.7266 4.57812 12.5859C4.88281 13.4375 5.35156 14.0898 5.98438 14.543C6.61719 14.9883 7.43359 15.2109 8.43359 15.2109C9.12891 15.2109 9.82422 15.1328 10.5195 14.9766C11.2227 14.8203 11.9844 14.5977 12.8047 14.3086V17.3555C12.0469 17.668 11.3008 17.8906 10.5664 18.0234C9.83203 18.1641 9.00781 18.2344 8.09375 18.2344C6.32812 18.2344 4.875 17.8711 3.73438 17.1445C2.60156 16.4102 1.76172 15.3867 1.21484 14.0742C0.667969 12.7539 0.394531 11.2148 0.394531 9.45703C0.394531 8.16016 0.570312 6.97266 0.921875 5.89453C1.27344 4.81641 1.78906 3.88281 2.46875 3.09375C3.14844 2.30469 3.98828 1.69531 4.98828 1.26562C5.98828 0.835938 7.13672 0.621094 8.43359 0.621094C9.28516 0.621094 10.1367 0.730469 10.9883 0.949219C11.8477 1.16016 12.668 1.45312 13.4492 1.82812L12.2773 4.78125C11.6367 4.47656 10.9922 4.21094 10.3438 3.98438C9.69531 3.75781 9.05859 3.64453 8.43359 3.64453ZM23.4922 4.65234C23.6719 4.65234 23.8789 4.66406 24.1133 4.6875C24.3555 4.70312 24.5508 4.72656 24.6992 4.75781L24.4297 8.10938C24.3125 8.07031 24.1445 8.04297 23.9258 8.02734C23.7148 8.00391 23.5312 7.99219 23.375 7.99219C22.9141 7.99219 22.4648 8.05078 22.0273 8.16797C21.5977 8.28516 21.2109 8.47656 20.8672 8.74219C20.5234 9 20.25 9.34375 20.0469 9.77344C19.8516 10.1953 19.7539 10.7148 19.7539 11.332V18H16.1797V4.89844H18.8867L19.4141 7.10156H19.5898C19.8477 6.65625 20.168 6.25 20.5508 5.88281C20.9414 5.50781 21.3828 5.21094 21.875 4.99219C22.375 4.76562 22.9141 4.65234 23.4922 4.65234ZM25.2031 4.89844H29.1172L31.5898 12.2695C31.668 12.5039 31.7344 12.7422 31.7891 12.9844C31.8438 13.2266 31.8906 13.4766 31.9297 13.7344C31.9688 13.9922 32 14.2617 32.0234 14.543H32.0938C32.1406 14.1211 32.2031 13.7266 32.2812 13.3594C32.3672 12.9922 32.4727 12.6289 32.5977 12.2695L35.0234 4.89844H38.8555L33.3125 19.6758C32.9766 20.582 32.5391 21.3359 32 21.9375C31.4609 22.5469 30.8398 23.0039 30.1367 23.3086C29.4414 23.6133 28.6758 23.7656 27.8398 23.7656C27.4336 23.7656 27.082 23.7422 26.7852 23.6953C26.4883 23.6562 26.2344 23.6133 26.0234 23.5664V20.7305C26.1875 20.7695 26.3945 20.8047 26.6445 20.8359C26.8945 20.8672 27.1562 20.8828 27.4297 20.8828C27.9297 20.8828 28.3594 20.7773 28.7188 20.5664C29.0781 20.3555 29.3789 20.0703 29.6211 19.7109C29.8633 19.3594 30.0547 18.9727 30.1953 18.5508L30.4062 17.9062L25.2031 4.89844ZM48.0312 4.65234C49.5078 4.65234 50.6992 5.22656 51.6055 6.375C52.5195 7.52344 52.9766 9.20703 52.9766 11.4258C52.9766 12.9102 52.7617 14.1602 52.332 15.1758C51.9023 16.1836 51.3086 16.9453 50.5508 17.4609C49.793 17.9766 48.9219 18.2344 47.9375 18.2344C47.3047 18.2344 46.7617 18.1562 46.3086 18C45.8555 17.8359 45.4688 17.6289 45.1484 17.3789C44.8281 17.1211 44.5508 16.8477 44.3164 16.5586H44.1289C44.1914 16.8711 44.2383 17.1914 44.2695 17.5195C44.3008 17.8477 44.3164 18.168 44.3164 18.4805V23.7656H40.7422V4.89844H43.6484L44.1523 6.59766H44.3164C44.5508 6.24609 44.8359 5.92188 45.1719 5.625C45.5078 5.32812 45.9102 5.09375 46.3789 4.92188C46.8555 4.74219 47.4062 4.65234 48.0312 4.65234ZM46.8828 7.51172C46.2578 7.51172 45.7617 7.64062 45.3945 7.89844C45.0273 8.15625 44.7578 8.54297 44.5859 9.05859C44.4219 9.57422 44.332 10.2266 44.3164 11.0156V11.4023C44.3164 12.2461 44.3945 12.9609 44.5508 13.5469C44.7148 14.1328 44.9844 14.5781 45.3594 14.8828C45.7422 15.1875 46.2656 15.3398 46.9297 15.3398C47.4766 15.3398 47.9258 15.1875 48.2773 14.8828C48.6289 14.5781 48.8906 14.1328 49.0625 13.5469C49.2422 12.9531 49.332 12.2305 49.332 11.3789C49.332 10.0977 49.1328 9.13281 48.7344 8.48438C48.3359 7.83594 47.7188 7.51172 46.8828 7.51172ZM61.4492 15.3867C61.8398 15.3867 62.2188 15.3477 62.5859 15.2695C62.9609 15.1914 63.332 15.0938 63.6992 14.9766V17.6367C63.3164 17.8086 62.8398 17.9492 62.2695 18.0586C61.707 18.1758 61.0898 18.2344 60.418 18.2344C59.6367 18.2344 58.9336 18.1094 58.3086 17.8594C57.6914 17.6016 57.2031 17.1602 56.8438 16.5352C56.4922 15.9023 56.3164 15.0234 56.3164 13.8984V7.58203H54.6055V6.07031L56.5742 4.875L57.6055 2.10938H59.8906V4.89844H63.5586V7.58203H59.8906V13.8984C59.8906 14.3984 60.0312 14.7734 60.3125 15.0234C60.6016 15.2656 60.9805 15.3867 61.4492 15.3867ZM78.2656 11.4258C78.2656 12.5195 78.1172 13.4883 77.8203 14.332C77.5312 15.1758 77.1055 15.8906 76.543 16.4766C75.9883 17.0547 75.3164 17.4922 74.5273 17.7891C73.7461 18.0859 72.8633 18.2344 71.8789 18.2344C70.957 18.2344 70.1094 18.0859 69.3359 17.7891C68.5703 17.4922 67.9023 17.0547 67.332 16.4766C66.7695 15.8906 66.332 15.1758 66.0195 14.332C65.7148 13.4883 65.5625 12.5195 65.5625 11.4258C65.5625 9.97266 65.8203 8.74219 66.3359 7.73438C66.8516 6.72656 67.5859 5.96094 68.5391 5.4375C69.4922 4.91406 70.6289 4.65234 71.9492 4.65234C73.1758 4.65234 74.2617 4.91406 75.207 5.4375C76.1602 5.96094 76.9062 6.72656 77.4453 7.73438C77.9922 8.74219 78.2656 9.97266 78.2656 11.4258ZM69.207 11.4258C69.207 12.2852 69.3008 13.0078 69.4883 13.5938C69.6758 14.1797 69.9688 14.6211 70.3672 14.918C70.7656 15.2148 71.2852 15.3633 71.9258 15.3633C72.5586 15.3633 73.0703 15.2148 73.4609 14.918C73.8594 14.6211 74.1484 14.1797 74.3281 13.5938C74.5156 13.0078 74.6094 12.2852 74.6094 11.4258C74.6094 10.5586 74.5156 9.83984 74.3281 9.26953C74.1484 8.69141 73.8594 8.25781 73.4609 7.96875C73.0625 7.67969 72.543 7.53516 71.9023 7.53516C70.957 7.53516 70.2695 7.85938 69.8398 8.50781C69.418 9.15625 69.207 10.1289 69.207 11.4258Z" fill="#333333"/>
<path d="M80.7148 16.3242C80.7148 15.5898 80.9141 15.0742 81.3125 14.7773C81.7188 14.4805 82.207 14.332 82.7773 14.332C83.332 14.332 83.8086 14.4805 84.207 14.7773C84.6133 15.0742 84.8164 15.5898 84.8164 16.3242C84.8164 17.0273 84.6133 17.5352 84.207 17.8477C83.8086 18.1602 83.332 18.3164 82.7773 18.3164C82.207 18.3164 81.7188 18.1602 81.3125 17.8477C80.9141 17.5352 80.7148 17.0273 80.7148 16.3242Z" fill="#F5CC3B"/>
<path d="M95.9258 23.7656V18.2695C95.9258 17.9414 95.9375 17.6133 95.9609 17.2852C95.9922 16.9492 96.0312 16.6211 96.0781 16.3008H95.9258C95.5898 16.8398 95.125 17.2969 94.5312 17.6719C93.9453 18.0469 93.1719 18.2344 92.2109 18.2344C90.7344 18.2344 89.5391 17.6641 88.625 16.5234C87.7188 15.375 87.2656 13.6914 87.2656 11.4727C87.2656 9.98047 87.4766 8.73047 87.8984 7.72266C88.3203 6.70703 88.9062 5.94141 89.6562 5.42578C90.4141 4.91016 91.2891 4.65234 92.2812 4.65234C93.2422 4.65234 94.0195 4.83984 94.6133 5.21484C95.2148 5.58203 95.7031 6.03516 96.0781 6.57422H96.1719L96.4883 4.89844H99.5117V23.7656H95.9258ZM93.4883 15.4336C94.1445 15.4336 94.6641 15.3047 95.0469 15.0469C95.4375 14.7891 95.7188 14.4023 95.8906 13.8867C96.0625 13.3633 96.1562 12.7109 96.1719 11.9297V11.4961C96.1719 10.2227 95.9766 9.25 95.5859 8.57812C95.1953 7.89844 94.4766 7.55859 93.4297 7.55859C92.5781 7.55859 91.9453 7.89844 91.5312 8.57812C91.1172 9.25781 90.9102 10.2383 90.9102 11.5195C90.9102 12.8242 91.1211 13.8047 91.543 14.4609C91.9648 15.1094 92.6133 15.4336 93.4883 15.4336ZM115.273 4.89844V18H112.531L112.051 16.3242H111.863C111.582 16.7695 111.23 17.1328 110.809 17.4141C110.387 17.6953 109.922 17.9023 109.414 18.0352C108.906 18.168 108.379 18.2344 107.832 18.2344C106.895 18.2344 106.078 18.0703 105.383 17.7422C104.688 17.4062 104.145 16.8867 103.754 16.1836C103.371 15.4805 103.18 14.5664 103.18 13.4414V4.89844H106.754V12.5508C106.754 13.4883 106.922 14.1953 107.258 14.6719C107.594 15.1484 108.129 15.3867 108.863 15.3867C109.59 15.3867 110.16 15.2227 110.574 14.8945C110.988 14.5586 111.277 14.0703 111.441 13.4297C111.613 12.7812 111.699 11.9922 111.699 11.0625V4.89844H115.273Z" fill="#8955F6"/>
</svg>
